<mxfile host="app.diagrams.net" modified="2023-06-21T09:48:27.453Z" agent="5.0 (Windows NT 10.0; Win64; x64) AppleWebKit/537.36 (KHTML, like Gecko) Chrome/114.0.0.0 Safari/537.36 Edg/114.0.1823.55" etag="9XX5Bw-Hsufc1TWV70Ih" version="20.8.20" type="github">
  <diagram name="Page-1" id="03018318-947c-dd8e-b7a3-06fadd420f32">
    <mxGraphModel dx="1323" dy="783" grid="1" gridSize="10" guides="1" tooltips="1" connect="1" arrows="1" fold="1" page="1" pageScale="1" pageWidth="1100" pageHeight="850" background="#ffffff" math="0" shadow="0">
      <root>
        <mxCell id="0" />
        <mxCell id="1" parent="0" />
        <mxCell id="677b7b8949515195-1" value="" style="whiteSpace=wrap;html=1;rounded=0;shadow=0;labelBackgroundColor=none;strokeColor=#000000;strokeWidth=1;fillColor=none;fontFamily=Verdana;fontSize=12;fontColor=#000000;align=center;comic=1;" parent="1" vertex="1">
          <mxGeometry x="20" y="30" width="1060" height="800" as="geometry" />
        </mxCell>
        <mxCell id="677b7b8949515195-2" value="LOGO" style="whiteSpace=wrap;html=1;rounded=0;shadow=0;labelBackgroundColor=none;strokeWidth=1;fontFamily=Verdana;fontSize=28;align=center;comic=1;" parent="1" vertex="1">
          <mxGeometry x="40" y="80" width="190" height="50" as="geometry" />
        </mxCell>
        <mxCell id="677b7b8949515195-8" value="" style="whiteSpace=wrap;html=1;rounded=0;shadow=0;labelBackgroundColor=none;strokeWidth=1;fillColor=none;fontFamily=Verdana;fontSize=12;align=center;comic=1;" parent="1" vertex="1">
          <mxGeometry x="30" y="230" width="200" height="590" as="geometry" />
        </mxCell>
        <mxCell id="677b7b8949515195-9" value="" style="line;strokeWidth=1;html=1;rounded=0;shadow=0;labelBackgroundColor=none;fillColor=none;fontFamily=Verdana;fontSize=14;fontColor=#000000;align=center;comic=1;" parent="1" vertex="1">
          <mxGeometry x="20" y="140" width="1060" height="70" as="geometry" />
        </mxCell>
        <mxCell id="677b7b8949515195-16" value="" style="verticalLabelPosition=bottom;shadow=0;dashed=0;align=center;html=1;verticalAlign=top;strokeWidth=1;shape=mxgraph.mockup.graphics.simpleIcon;strokeColor=#999999;rounded=0;labelBackgroundColor=none;fontFamily=Verdana;fontSize=14;fontColor=#000000;comic=1;" parent="1" vertex="1">
          <mxGeometry x="250" y="375" width="810" height="120" as="geometry" />
        </mxCell>
        <mxCell id="677b7b8949515195-27" value="Section 1" style="text;html=1;points=[];align=left;verticalAlign=top;spacingTop=-4;fontSize=14;fontFamily=Verdana" parent="1" vertex="1">
          <mxGeometry x="40" y="250" width="170" height="20" as="geometry" />
        </mxCell>
        <mxCell id="677b7b8949515195-28" value="Section 2" style="text;html=1;points=[];align=left;verticalAlign=top;spacingTop=-4;fontSize=14;fontFamily=Verdana" parent="1" vertex="1">
          <mxGeometry x="40" y="286" width="170" height="20" as="geometry" />
        </mxCell>
        <mxCell id="677b7b8949515195-29" value="Section 3" style="text;html=1;points=[];align=left;verticalAlign=top;spacingTop=-4;fontSize=14;fontFamily=Verdana" parent="1" vertex="1">
          <mxGeometry x="40" y="321" width="170" height="20" as="geometry" />
        </mxCell>
        <mxCell id="677b7b8949515195-30" value="Section 4" style="text;html=1;points=[];align=left;verticalAlign=top;spacingTop=-4;fontSize=14;fontFamily=Verdana" parent="1" vertex="1">
          <mxGeometry x="40" y="357" width="170" height="20" as="geometry" />
        </mxCell>
        <mxCell id="677b7b8949515195-31" value="Section 7" style="text;html=1;points=[];align=left;verticalAlign=top;spacingTop=-4;fontSize=14;fontFamily=Verdana" parent="1" vertex="1">
          <mxGeometry x="40" y="464" width="170" height="20" as="geometry" />
        </mxCell>
        <mxCell id="677b7b8949515195-32" value="Section 8" style="text;html=1;points=[];align=left;verticalAlign=top;spacingTop=-4;fontSize=14;fontFamily=Verdana" parent="1" vertex="1">
          <mxGeometry x="40" y="500" width="170" height="20" as="geometry" />
        </mxCell>
        <mxCell id="677b7b8949515195-33" value="Section 9" style="text;html=1;points=[];align=left;verticalAlign=top;spacingTop=-4;fontSize=14;fontFamily=Verdana" parent="1" vertex="1">
          <mxGeometry x="40" y="536" width="170" height="20" as="geometry" />
        </mxCell>
        <mxCell id="677b7b8949515195-34" value="Section 10" style="text;html=1;points=[];align=left;verticalAlign=top;spacingTop=-4;fontSize=14;fontFamily=Verdana" parent="1" vertex="1">
          <mxGeometry x="40" y="571" width="170" height="20" as="geometry" />
        </mxCell>
        <mxCell id="677b7b8949515195-35" value="Section 11" style="text;html=1;points=[];align=left;verticalAlign=top;spacingTop=-4;fontSize=14;fontFamily=Verdana" parent="1" vertex="1">
          <mxGeometry x="40" y="607" width="170" height="20" as="geometry" />
        </mxCell>
        <mxCell id="677b7b8949515195-36" value="Section 12" style="text;html=1;points=[];align=left;verticalAlign=top;spacingTop=-4;fontSize=14;fontFamily=Verdana" parent="1" vertex="1">
          <mxGeometry x="40" y="643" width="170" height="20" as="geometry" />
        </mxCell>
        <mxCell id="677b7b8949515195-37" value="Section 13" style="text;html=1;points=[];align=left;verticalAlign=top;spacingTop=-4;fontSize=14;fontFamily=Verdana" parent="1" vertex="1">
          <mxGeometry x="40" y="679" width="170" height="20" as="geometry" />
        </mxCell>
        <mxCell id="677b7b8949515195-38" value="Section 14" style="text;html=1;points=[];align=left;verticalAlign=top;spacingTop=-4;fontSize=14;fontFamily=Verdana" parent="1" vertex="1">
          <mxGeometry x="40" y="714" width="170" height="20" as="geometry" />
        </mxCell>
        <mxCell id="677b7b8949515195-39" value="Section 5" style="text;html=1;points=[];align=left;verticalAlign=top;spacingTop=-4;fontSize=14;fontFamily=Verdana" parent="1" vertex="1">
          <mxGeometry x="40" y="393" width="170" height="20" as="geometry" />
        </mxCell>
        <mxCell id="677b7b8949515195-40" value="Section 6" style="text;html=1;points=[];align=left;verticalAlign=top;spacingTop=-4;fontSize=14;fontFamily=Verdana" parent="1" vertex="1">
          <mxGeometry x="40" y="429" width="170" height="20" as="geometry" />
        </mxCell>
        <mxCell id="677b7b8949515195-41" value="Section 15" style="text;html=1;points=[];align=left;verticalAlign=top;spacingTop=-4;fontSize=14;fontFamily=Verdana" parent="1" vertex="1">
          <mxGeometry x="40" y="750" width="170" height="20" as="geometry" />
        </mxCell>
        <mxCell id="sO6Lhtv9uwpA_ig-lJA1-1" value="&lt;b&gt;Checklist 1&lt;/b&gt;" style="text;html=1;strokeColor=none;fillColor=none;align=center;verticalAlign=middle;whiteSpace=wrap;rounded=0;" vertex="1" parent="1">
          <mxGeometry x="617.5" y="420" width="75" height="30" as="geometry" />
        </mxCell>
        <mxCell id="sO6Lhtv9uwpA_ig-lJA1-2" value="" style="verticalLabelPosition=bottom;shadow=0;dashed=0;align=center;html=1;verticalAlign=top;strokeWidth=1;shape=mxgraph.mockup.graphics.simpleIcon;strokeColor=#999999;rounded=0;labelBackgroundColor=none;fontFamily=Verdana;fontSize=14;fontColor=#000000;comic=1;" vertex="1" parent="1">
          <mxGeometry x="250" y="520" width="810" height="120" as="geometry" />
        </mxCell>
        <mxCell id="sO6Lhtv9uwpA_ig-lJA1-3" value="&lt;b&gt;Checklist 2&lt;/b&gt;" style="text;html=1;strokeColor=none;fillColor=none;align=center;verticalAlign=middle;whiteSpace=wrap;rounded=0;" vertex="1" parent="1">
          <mxGeometry x="617.5" y="565" width="75" height="30" as="geometry" />
        </mxCell>
        <mxCell id="sO6Lhtv9uwpA_ig-lJA1-4" value="" style="verticalLabelPosition=bottom;shadow=0;dashed=0;align=center;html=1;verticalAlign=top;strokeWidth=1;shape=mxgraph.mockup.graphics.simpleIcon;strokeColor=#999999;rounded=0;labelBackgroundColor=none;fontFamily=Verdana;fontSize=14;fontColor=#000000;comic=1;" vertex="1" parent="1">
          <mxGeometry x="250" y="663" width="810" height="120" as="geometry" />
        </mxCell>
        <mxCell id="sO6Lhtv9uwpA_ig-lJA1-5" value="&lt;b&gt;Checklist 3&lt;/b&gt;" style="text;html=1;strokeColor=none;fillColor=none;align=center;verticalAlign=middle;whiteSpace=wrap;rounded=0;" vertex="1" parent="1">
          <mxGeometry x="617.5" y="709" width="75" height="30" as="geometry" />
        </mxCell>
        <mxCell id="sO6Lhtv9uwpA_ig-lJA1-7" value="" style="rounded=0;whiteSpace=wrap;html=1;glass=0;gradientColor=none;fillColor=none;" vertex="1" parent="1">
          <mxGeometry x="240" y="320" width="830" height="500" as="geometry" />
        </mxCell>
        <mxCell id="sO6Lhtv9uwpA_ig-lJA1-8" value="&lt;b&gt;Report Result&lt;/b&gt;" style="text;html=1;strokeColor=none;fillColor=none;align=center;verticalAlign=middle;whiteSpace=wrap;rounded=0;" vertex="1" parent="1">
          <mxGeometry x="240" y="327" width="100" height="30" as="geometry" />
        </mxCell>
        <mxCell id="sO6Lhtv9uwpA_ig-lJA1-9" value="Date From" style="rounded=0;whiteSpace=wrap;html=1;glass=0;fillColor=none;gradientColor=none;" vertex="1" parent="1">
          <mxGeometry x="240" y="230" width="330" height="40" as="geometry" />
        </mxCell>
        <mxCell id="sO6Lhtv9uwpA_ig-lJA1-10" value="Date To" style="rounded=0;whiteSpace=wrap;html=1;glass=0;fillColor=none;gradientColor=none;" vertex="1" parent="1">
          <mxGeometry x="600" y="230" width="350" height="40" as="geometry" />
        </mxCell>
        <mxCell id="sO6Lhtv9uwpA_ig-lJA1-12" value="" style="ellipse;whiteSpace=wrap;html=1;aspect=fixed;glass=0;fillColor=none;gradientColor=none;" vertex="1" parent="1">
          <mxGeometry x="1000" y="230" width="40" height="40" as="geometry" />
        </mxCell>
        <mxCell id="sO6Lhtv9uwpA_ig-lJA1-13" value="" style="shape=image;verticalLabelPosition=bottom;verticalAlign=top;imageAspect=0;aspect=fixed;image=data:image/svg+xml,PHN2ZyB4bWxucz0iaHR0cDovL3d3dy53My5vcmcvMjAwMC9zdmciIHZlcnNpb249IjEiIHZpZXdCb3g9IjAgMCA0OCA0OCIgZW5hYmxlLWJhY2tncm91bmQ9Im5ldyAwIDAgNDggNDgiPiYjeGE7ICAgIDxnIGZpbGw9IiM2MTYxNjEiPiYjeGE7ICAgICAgICA8cmVjdCB4PSIzNC42IiB5PSIyOC4xIiB0cmFuc2Zvcm09Im1hdHJpeCguNzA3IC0uNzA3IC43MDcgLjcwNyAtMTUuMTU0IDM2LjU4NikiIHdpZHRoPSI0IiBoZWlnaHQ9IjE3Ii8+JiN4YTsgICAgICAgIDxjaXJjbGUgY3g9IjIwIiBjeT0iMjAiIHI9IjE2Ii8+JiN4YTsgICAgPC9nPiYjeGE7ICAgIDxyZWN0IHg9IjM2LjIiIHk9IjMyLjEiIHRyYW5zZm9ybT0ibWF0cml4KC43MDcgLS43MDcgLjcwNyAuNzA3IC0xNS44MzkgMzguMjM5KSIgZmlsbD0iIzM3NDc0RiIgd2lkdGg9IjQiIGhlaWdodD0iMTIuMyIvPiYjeGE7ICAgIDxjaXJjbGUgZmlsbD0iIzY0QjVGNiIgY3g9IjIwIiBjeT0iMjAiIHI9IjEzIi8+JiN4YTsgICAgPHBhdGggZmlsbD0iI0JCREVGQiIgZD0iTTI2LjksMTQuMmMtMS43LTItNC4yLTMuMi02LjktMy4ycy01LjIsMS4yLTYuOSwzLjJjLTAuNCwwLjQtMC4zLDEuMSwwLjEsMS40YzAuNCwwLjQsMS4xLDAuMywxLjQtMC4xIEMxNiwxMy45LDE3LjksMTMsMjAsMTNzNCwwLjksNS40LDIuNWMwLjIsMC4yLDAuNSwwLjQsMC44LDAuNGMwLjIsMCwwLjUtMC4xLDAuNi0wLjJDMjcuMiwxNS4zLDI3LjIsMTQuNiwyNi45LDE0LjJ6Ii8+JiN4YTs8L3N2Zz4=;glass=0;fillColor=none;gradientColor=none;" vertex="1" parent="1">
          <mxGeometry x="1011" y="241" width="18" height="18" as="geometry" />
        </mxCell>
      </root>
    </mxGraphModel>
  </diagram>
</mxfile>
